<svg xmlns="http://www.w3.org/2000/svg" version="1.1" xmlns:xlink="http://www.w3.org/1999/xlink" xmlns:svgjs="http://svgjs.dev/svgjs" width="1500" height="1500" viewBox="0 0 1500 1500"><rect width="1500" height="1500" fill="#ffffff"></rect><g transform="matrix(0.6666666666666666,0,0,0.6666666666666666,249.39393939393938,665.4108922111374)"><svg viewBox="0 0 396 67" data-background-color="#ffffff" preserveAspectRatio="xMidYMid meet" height="253" width="1500" xmlns="http://www.w3.org/2000/svg" xmlns:xlink="http://www.w3.org/1999/xlink"><g id="tight-bounds" transform="matrix(1,0,0,1,0.2400000000000091,0.10160210585252116)"><svg viewBox="0 0 395.52 66.79679578829493" height="66.79679578829493" width="395.52"><g><svg viewBox="0 0 523.7640659079849 88.4551005049118" height="66.79679578829493" width="395.52"><g><rect width="5.772049384368065" height="76.80616541671067" x="410.63007692242945" y="5.824467544100564" fill="#9da27e" opacity="1" stroke-width="0" stroke="transparent" fill-opacity="1" class="rect-qz-0" data-fill-palette-color="primary" rx="1%" id="qz-0" data-palette-color="#9da27e"></rect></g><g transform="matrix(1,0,0,1,0,12.224981328826452)"><svg viewBox="0 0 395.52 64.0051378472589" height="64.0051378472589" width="395.52"><g id="textblocktransform"><svg viewBox="0 0 395.52 64.0051378472589" height="64.0051378472589" width="395.52" id="textblock"><g><svg viewBox="0 0 395.52 64.0051378472589" height="64.0051378472589" width="395.52"><g transform="matrix(1,0,0,1,0,0)"><svg width="395.52" viewBox="1.32 -35.94 231.11 37.4" height="64.0051378472589" data-palette-color="#9da27e"><path d="M29.69-23.49L29.69-23.49Q29.69-21.12 28.98-19.29 28.27-17.46 27.04-16.09 25.81-14.72 24.15-13.77 22.49-12.82 20.59-12.22 18.7-11.62 16.67-11.34 14.65-11.06 12.7-11.04L12.7-11.04 12.7 0.34 1.32 0.34Q1.32-5.25 1.34-10.79 1.37-16.33 1.42-21.97L1.42-21.97Q1.46-24.95 1.44-27.93 1.42-30.91 1.56-33.94L1.56-33.94Q4.69-34.86 7.81-35.33 10.94-35.79 14.26-35.79L14.26-35.79Q16.14-35.79 18.02-35.49 19.9-35.18 21.62-34.52 23.34-33.86 24.82-32.87 26.29-31.88 27.37-30.52 28.44-29.15 29.06-27.4 29.69-25.66 29.69-23.49ZM18.85-22.66L18.85-22.66Q18.85-24.24 17.88-25.13 16.92-26.03 15.38-26.03L15.38-26.03Q14.87-26.03 14.32-25.94 13.77-25.85 13.28-25.73L13.28-25.73 12.99-18.6Q13.33-18.55 13.65-18.55 13.96-18.55 14.31-18.55L14.31-18.55Q15.19-18.55 16-18.85 16.82-19.14 17.46-19.69 18.09-20.24 18.47-20.98 18.85-21.73 18.85-22.66ZM49.7-34.96L59.23-2.1 47.12-0.54 45.65-6.05 40.09-6.05 38.86-0.54 26.41-1.76 36.13-34.28 49.7-34.96ZM41.11-13.53L44.77-13.53 42.92-22.02 41.11-13.53ZM83.3-34.33L83.3-34.33 81.93-24.02Q81.22-24.22 80.51-24.29 79.8-24.37 79.1-24.37L79.1-24.37Q77.29-24.37 75.65-23.89 74.02-23.41 72.76-22.44 71.5-21.46 70.76-20 70.01-18.53 70.01-16.55L70.01-16.55Q70.01-15.28 70.42-14.36 70.82-13.43 71.55-12.82 72.29-12.21 73.29-11.91 74.29-11.62 75.48-11.62L75.48-11.62Q76.39-11.62 77.36-11.82 78.34-12.01 79.29-12.33 80.24-12.65 81.15-13.06 82.05-13.48 82.81-13.92L82.81-13.92 81.83-2.44Q80.88-1.95 79.77-1.57 78.66-1.2 77.49-0.92 76.31-0.63 75.14-0.49 73.97-0.34 72.9-0.34L72.9-0.34Q69.79-0.34 67.11-1.49 64.42-2.64 62.45-4.64 60.47-6.64 59.33-9.36 58.2-12.08 58.2-15.23L58.2-15.23Q58.2-19.41 59.39-23.11 60.59-26.81 62.91-29.59 65.23-32.37 68.66-33.98 72.09-35.6 76.56-35.6L76.56-35.6Q78.24-35.6 80.01-35.33 81.78-35.06 83.3-34.33ZM103.48-35.94L115.79-34.96 104.02-18.7 113.93-1.42 102.6 0.59 95.18-9.96 94.79 1.07 84.64 1.46 85.42-35.94 96.79-35.3 95.92-24.27 103.48-35.94ZM136.81-34.96L146.33-2.1 134.22-0.54 132.75-6.05 127.19-6.05 125.97-0.54 113.52-1.76 123.23-34.28 136.81-34.96ZM128.21-13.53L131.87-13.53 130.02-22.02 128.21-13.53ZM170.4-34.33L170.4-34.33 169.03-24.02Q168.32-24.22 167.61-24.29 166.91-24.37 166.2-24.37L166.2-24.37Q164.39-24.37 162.76-23.89 161.12-23.41 159.86-22.44 158.61-21.46 157.86-20 157.12-18.53 157.12-16.55L157.12-16.55Q157.12-15.28 157.52-14.36 157.92-13.43 158.65-12.82 159.39-12.21 160.39-11.91 161.39-11.62 162.59-11.62L162.59-11.62Q163.49-11.62 164.47-11.82 165.44-12.01 166.39-12.33 167.35-12.65 168.25-13.06 169.15-13.48 169.91-13.92L169.91-13.92 168.93-2.44Q167.98-1.95 166.87-1.57 165.76-1.2 164.59-0.92 163.42-0.63 162.24-0.49 161.07-0.34 160-0.34L160-0.34Q156.9-0.34 154.21-1.49 151.53-2.64 149.55-4.64 147.57-6.64 146.44-9.36 145.3-12.08 145.3-15.23L145.3-15.23Q145.3-19.41 146.5-23.11 147.69-26.81 150.01-29.59 152.33-32.37 155.76-33.98 159.19-35.6 163.66-35.6L163.66-35.6Q165.34-35.6 167.11-35.33 168.88-35.06 170.4-34.33ZM200.13-34.81L200.91 0 188.71 0.59 188.61-10.69 182.99-10.69 182.65 0 171.71 0 172.64-34.33 184.26-33.79 183.53-16.26 188.95-16.26 189-35.11 200.13-34.81ZM232.43-27.15L232.43-27.15Q232.43-25.34 232.26-23.17 232.09-21 231.7-18.68 231.31-16.36 230.68-13.98 230.06-11.6 229.13-9.4 228.21-7.2 226.97-5.29 225.74-3.37 224.14-1.94 222.54-0.51 220.56 0.31 218.59 1.12 216.17 1.12L216.17 1.12Q213.34 1.12 211.25 0.21 209.16-0.71 207.67-2.26 206.18-3.81 205.23-5.87 204.28-7.93 203.74-10.24 203.21-12.55 203-14.95 202.79-17.36 202.79-19.58L202.79-19.58Q202.79-23 203.13-26.4 203.47-29.81 204.11-33.2L204.11-33.2 215.53-32.76Q214.88-28.93 214.4-25.06 213.92-21.19 213.92-17.29L213.92-17.29Q213.92-16.87 213.96-16.05 214-15.23 214.09-14.22 214.19-13.21 214.37-12.15 214.56-11.08 214.88-10.21 215.19-9.33 215.64-8.76 216.1-8.2 216.71-8.2L216.71-8.2Q217.41-8.2 217.98-8.87 218.54-9.55 218.96-10.67 219.39-11.79 219.71-13.26 220.03-14.72 220.25-16.31 220.47-17.9 220.6-19.48 220.73-21.07 220.82-22.44 220.91-23.8 220.93-24.85 220.95-25.9 220.95-26.42L220.95-26.42Q220.95-28.32 220.89-30.21 220.83-32.1 220.71-33.98L220.71-33.98 232.14-33.98Q232.43-30.62 232.43-27.15Z" opacity="1" transform="matrix(1,0,0,1,0,0)" fill="#9da27e" class="wordmark-text-0" data-fill-palette-color="primary" id="text-0"></path></svg></g></svg></g></svg></g></svg></g><g transform="matrix(1,0,0,1,431.512203229227,0)"><svg viewBox="0 0 92.25186267875794 88.4551005049118" height="88.4551005049118" width="92.25186267875794"><g><svg xmlns="http://www.w3.org/2000/svg" xmlns:xlink="http://www.w3.org/1999/xlink" version="1.1" x="0" y="0" viewBox="14.171999999999997 19.420759507732072 255.11799999999997 244.61824049226792" enable-background="new 0 0 283.46 283.46" xml:space="preserve" height="88.4551005049118" width="92.25186267875794" class="icon-icon-0" data-fill-palette-color="accent" id="icon-0"><path fill="#91abbb" d="M116.572 116.183c-1.906-4.95-3.811-9.899-5.714-14.849-1.551-4.034-3.102-8.069-4.652-12.103 4.214 0.959 8.429 1.918 12.643 2.877 2.51 0.57 5.024 1.146 7.536 1.722 0.073-0.375 0.148-0.75 0.225-1.126-8.303-8.116-16.607-16.23-24.909-24.345-29.178 8.505-58.352 17.019-87.529 25.54 13.821 14.45 27.639 28.903 41.476 43.354C75.954 130.229 96.264 123.205 116.572 116.183z" data-fill-palette-color="accent"></path><path fill="#91abbb" d="M182.664 68.654c-2.734 4.286-5.104 8.806-7.11 13.479-2.958 6.892-5.119 14.119-6.518 21.487 2.806 0.642 5.608 1.285 8.421 1.925 3.588 0.819 7.175 1.638 10.763 2.457-2.302 2.871-4.605 5.743-6.907 8.614-0.953 1.188-1.906 2.376-2.859 3.564 16.456 5.691 32.915 11.382 49.38 17.072 13.82-14.45 27.636-28.903 41.456-43.354-13.058-3.818-26.122-7.628-39.186-11.432C214.289 77.862 198.475 73.257 182.664 68.654z" data-fill-palette-color="accent"></path><polygon fill="#91abbb" points="141.733,173.054 141.733,264.039 61.539,222.912 55.646,137.252 " data-fill-palette-color="accent"></polygon><polygon fill="#91abbb" points="221.929,222.912 141.733,264.039 141.733,173.054 227.833,137.252 " data-fill-palette-color="accent"></polygon><path fill="#91abbb" d="M161.186 108.917c6.424-48.931 41.985-83.859 84.236-82.73-51.045-22.622-105.189 13.69-113.394 76.034-4.892-1.123-9.812-2.254-14.714-3.37 7.494 19.491 15.006 38.975 22.501 58.469 12.027-15.004 24.066-30.025 36.1-45.032C170.998 111.166 166.093 110.04 161.186 108.917z" data-fill-palette-color="accent"></path></svg></g></svg></g></svg></g><defs></defs></svg><rect width="395.52" height="66.79679578829493" fill="none" stroke="none" visibility="hidden"></rect></g></svg></g></svg>